<svg id="Layer_1" data-name="Layer 1" xmlns="http://www.w3.org/2000/svg" viewBox="0 0 740.21 194.88"><defs><style>.cls-1{fill:#424243;}.cls-2{fill:#2dabe2;}.cls-3{fill:#1f77ba;}.cls-4{fill:#6d174d;}.cls-5{fill:#9f2064;}.cls-6{fill:#ef4238;}.cls-7{fill:#f69323;}</style></defs><title>YKC Logo Final Vector</title><polyline class="cls-1" points="291.53 48.76 291.53 80.61 279.75 80.61 279.75 48.67 259.52 10.75 272.89 10.75 287.42 38.05 301.76 10.75 311.7 10.75 291.53 48.76"/><path class="cls-1" d="M358.34,74.15a36.07,36.07,0,0,1,17.89-4.34Q395,69.81,395,85.33v37.74H384.48v-6.3c-5.32,4.8-10.54,7.18-15.73,7.18q-14.33,0-14.35-17.88c0-5.78,1.6-9.89,4.85-12.39,2.95-2.21,7.76-3.33,14.39-3.33,4,0,7.35.13,10.06.39V82.49c-.32-2.62-3-3.93-7.9-3.93q-7,0-17.46,4.8V74.15m7.56,31.92c0,3.48.81,5.75,2.38,6.89.93.65,2.56,1,4.92,1,2.57,0,6.07-1.28,10.5-3.94V98.19a84.46,84.46,0,0,1-8.51.43c-3.16,0-5.39.37-6.7,1.17C366.77,100.89,365.9,103,365.9,106.07Z" transform="translate(-42.33 -42.46)"/><path class="cls-1" d="M412,123.07H400.62V53.21H412V75.92a23.26,23.26,0,0,1,16.4-6.11q13.75,0,13.77,18.29v35H430.8V90.35c0-5.31-.74-8.68-2.18-10.14-1-1-3.12-1.46-6.41-1.46-3.45,0-6.87,1.39-10.2,4.14v40.18" transform="translate(-42.33 -42.46)"/><path class="cls-1" d="M457.71,119.73l-15.83-49h12l13.46,41.48L480.7,70.68h8.72l-15.7,48.05c-3.2,9.89-6.17,16.18-8.84,18.87-2.35,2.44-6.36,3.65-12,3.65a19.75,19.75,0,0,1-4-.3v-8a40.93,40.93,0,0,0,4.44.2c4,0,6-1.91,6-5.71a25.83,25.83,0,0,0-1.57-7.66" transform="translate(-42.33 -42.46)"/><path class="cls-1" d="M492.9,74.15a36,36,0,0,1,17.88-4.34q18.76,0,18.75,15.52v37.74H519v-6.3c-5.29,4.8-10.52,7.18-15.71,7.18-9.55,0-14.36-6-14.36-17.88,0-5.78,1.63-9.89,4.86-12.39,2.94-2.21,7.74-3.33,14.37-3.33,4,0,7.38.13,10.08.39V82.49q-.53-3.93-7.89-3.93-7,0-17.47,4.8V74.15m7.56,31.92c0,3.48.79,5.75,2.39,6.89.9.65,2.54,1,4.91,1,2.58,0,6.07-1.28,10.5-3.94V98.19a84.91,84.91,0,0,1-8.54.43c-3.15,0-5.37.37-6.7,1.17C501.3,100.89,500.46,103,500.46,106.07Z" transform="translate(-42.33 -42.46)"/><polyline class="cls-1" points="548.76 10.75 560.35 10.75 536.48 38.26 561.44 80.61 547.77 80.61 528.32 47.68 521.45 55.56 521.45 80.61 509.67 80.61 509.67 10.75 521.45 10.75 521.45 42.19 548.76 10.75"/><path class="cls-1" d="M615.63,101.06q.33,7.06,2.48,10.31c1.78,2.82,4.7,4.23,8.83,4.23q7.78,0,17.7-4.13v8.07A47.25,47.25,0,0,1,624.77,124q-20.7,0-20.71-27.12c0-9,1.59-15.68,4.82-19.94,3.48-4.65,9.06-7,16.78-7.09q20.45-.18,20.46,24v7.26H615.63m19.17-8.35c0-4.78-.38-8.1-1.18-9.92q-1.85-4.71-8-4.71c-3.86,0-6.49,1.17-7.94,3.51-1.25,2-1.94,5.74-2.09,11.12Z" transform="translate(-42.33 -42.46)"/><path class="cls-1" d="M689.84,76.89a17.71,17.71,0,0,1,4.72-3.73,23.54,23.54,0,0,1,12.29-3.36c8.56,0,12.85,6.12,12.85,18.3v35H708.39V90.35c0-5.32-.6-8.68-1.86-10.14-.84-1-2.78-1.46-5.79-1.46s-6.26,1.39-9.54,4.13a26.19,26.19,0,0,1,.41,5.22v35h-11.4V90.35c0-5.32-.63-8.68-1.87-10.14-.84-1-2.79-1.46-5.77-1.46-3.16,0-6.28,1.39-9.35,4.13v40.19H651.84V70.67h10.49V76.6c4.09-4.52,9.49-6.8,16.3-6.8,5.63,0,9.38,2.37,11.21,7.09" transform="translate(-42.33 -42.46)"/><path class="cls-1" d="M726.5,74.14a36.18,36.18,0,0,1,17.87-4.34c12.54,0,18.78,5.18,18.78,15.53v37.74H752.64v-6.3c-5.32,4.8-10.55,7.18-15.73,7.18q-14.34,0-14.33-17.88c0-5.78,1.61-9.89,4.82-12.39,3-2.21,7.74-3.33,14.4-3.33,4,0,7.36.12,10.06.39V82.49c-.32-2.62-3-3.93-7.9-3.93-4.68,0-10.46,1.6-17.46,4.8V74.14m7.58,31.93c0,3.48.76,5.75,2.35,6.89.91.65,2.58,1,5,1,2.57,0,6.07-1.28,10.48-3.94V98.19a84.61,84.61,0,0,1-8.51.43c-3.16,0-5.4.37-6.72,1.17C734.91,100.89,734.08,103,734.08,106.07Z" transform="translate(-42.33 -42.46)"/><rect class="cls-1" x="728.8" y="10.75" width="11.41" height="69.86"/><path class="cls-1" d="M427,212.31c4.37,4.76,11.38,7.17,20.77,7.17a35.25,35.25,0,0,0,16-4.31v-5.63a30.6,30.6,0,0,1-16,4.9c-7.23,0-12.47-2.59-15.6-7.7-2.91-4.64-4.33-11.79-4.33-21.84s1.42-17.19,4.34-21.77c3.12-5.09,8.36-7.66,15.59-7.66a25.74,25.74,0,0,1,15.11,4.59v-5.61a30.13,30.13,0,0,0-15.11-4c-9.39,0-16.4,2.42-20.77,7.16-5,5.41-7.61,14.6-7.61,27.32S422,206.84,427,212.31" transform="translate(-42.33 -42.46)"/><path class="cls-1" d="M487.71,167.54c-14.7,0-21.86,8.41-21.86,25.75s7.16,25.84,21.86,25.84,21.74-8.45,21.74-25.84-7.12-25.75-21.74-25.75m12,40.39c-2.2,4.49-6.34,6.87-12,6.87s-9.79-2.38-12.06-6.84c-1.59-3.22-2.34-8-2.34-14.67s.75-11.37,2.32-14.56c2.29-4.5,6.45-6.87,12.08-6.87s9.76,2.39,12,6.87c1.55,3.19,2.32,8,2.32,14.56S501.22,204.74,499.67,207.93Z" transform="translate(-42.33 -42.46)"/><rect class="cls-1" x="470.16" y="108.86" width="7.54" height="67.26"/><rect class="cls-1" x="484.22" y="108.86" width="7.55" height="67.26"/><path class="cls-1" d="M558.78,219.48a46,46,0,0,0,18.23-3.8v-3.9a46.89,46.89,0,0,1-16,3.27c-4.94,0-8.55-1.77-10.75-5.28-1.67-2.52-2.6-6.3-2.83-11.54l-.09-2.13h31.2v-5.38c0-15.11-6-22.44-18.48-22.44-7.6.06-12.69,2.16-15.86,6.41-3,4-4.52,10.4-4.52,19.14,0,17.26,6.26,25.65,19.13,25.65M547.4,189.56c.16-5.92,1-9.95,2.42-12.35,1.85-3.05,5.16-4.59,9.87-4.59,6.29,0,8.93,3.31,10,6.1.91,2.1,1.36,5.68,1.36,10.89v2H547.36Z" transform="translate(-42.33 -42.46)"/><path class="cls-1" d="M621.39,169.07c-9.85-.52-16.06-.79-18.41-.79-7.89,0-13.34,2.13-16.63,6.51-3,3.91-4.52,10-4.52,18.13,0,7.56,1.4,13.4,4.17,17.35,2.62,3.76,6.27,5.59,11.15,5.59,4.67,0,9.44-2.21,14.17-6.57l3.43-3.18v8.29c0,15.29-7.72,18.5-14.18,18.5a36.47,36.47,0,0,1-13.81-2.28v3.92c2.15,1.39,6.52,2.8,15.51,2.8,6.05,0,10.65-1.88,14-5.77s5.11-10,5.11-18.07V169.07M614,205.21l-.86.62c-4.46,3.22-8.38,4.8-11.92,4.8-4.13,0-6.92-1-8.48-3.14-2-2.58-2.9-7.48-2.9-15,0-7.17.79-12.13,2.45-15.17,1.84-3.41,5.3-5.13,10.22-5.13a32.6,32.6,0,0,1,10.11,1.21l1.38.47Z" transform="translate(-42.33 -42.46)"/><path class="cls-1" d="M645.24,219.48a46,46,0,0,0,18.22-3.8v-3.9a47,47,0,0,1-16,3.27c-5,0-8.58-1.77-10.78-5.28-1.67-2.52-2.6-6.3-2.82-11.54l-.09-2.13H665v-5.38c0-15.11-6.06-22.44-18.51-22.44-7.59.06-12.67,2.16-15.85,6.41-3,4-4.5,10.4-4.5,19.14,0,17.26,6.25,25.65,19.14,25.65m-11.4-29.92c.16-5.92.94-9.95,2.41-12.35,1.86-3.05,5.18-4.59,9.87-4.59,6.3,0,8.93,3.31,10,6.1.88,2.1,1.34,5.68,1.34,10.89v2H633.79Z" transform="translate(-42.33 -42.46)"/><path class="cls-2" d="M330.07,198.92s-90.25-81.77-154.48-18.3L185,154.77s45.47-38.43,108.14,9.48a282.28,282.28,0,0,1,36.95,34.67" transform="translate(-42.33 -42.46)"/><path class="cls-3" d="M42.33,101.18s121.39-9.73,133.56,79.73L185,154.77S167.49,91.53,80.3,95.29c-30.91,1.32-38,5.89-38,5.89" transform="translate(-42.33 -42.46)"/><path class="cls-4" d="M71.61,74.36s91.86-6.28,116.87,64.32l5.66-20.22s-14.69-47.53-75.71-48.67c-21.34-.39-46.82,4.57-46.82,4.57" transform="translate(-42.33 -42.46)"/><path class="cls-5" d="M320.59,159s-72.3-61.44-132.16-20.32l5.71-20.19s32.41-28,86.31,6.78c20.27,13,40.14,33.73,40.14,33.73" transform="translate(-42.33 -42.46)"/><path class="cls-6" d="M109,45.3s68-3.85,92.62,56.05l5-18.41S189.85,43.48,144.09,42.5c-20.8-.43-35.13,2.8-35.13,2.8" transform="translate(-42.33 -42.46)"/><path class="cls-7" d="M310,113.3S253.4,69,201.5,101.39l5.12-18.45s30.54-22.06,74.68,6.43c15,9.68,28.66,23.93,28.66,23.93" transform="translate(-42.33 -42.46)"/></svg>